<svg xmlns="http://www.w3.org/2000/svg" viewBox="0 0 1120 630" width="1120" height="630" font-family="Archivo, Arial, sans-serif">
  <rect width="1120" height="630" fill="#0d2438"/>
  <g stroke="#123049" stroke-width="1">
    <path d="M44 0V630M88 0V630M132 0V630M176 0V630M220 0V630M264 0V630M308 0V630M352 0V630M396 0V630M440 0V630M484 0V630M528 0V630M572 0V630M616 0V630M660 0V630M704 0V630M748 0V630M792 0V630M836 0V630M880 0V630M924 0V630M968 0V630M1012 0V630M1056 0V630M1100 0V630"/>
    <path d="M0 44H1120M0 88H1120M0 132H1120M0 176H1120M0 220H1120M0 264H1120M0 308H1120M0 352H1120M0 396H1120M0 440H1120M0 484H1120M0 528H1120M0 572H1120M0 616H1120"/>
  </g>
  <!-- browser frame -->
  <rect x="140" y="90" width="840" height="450" fill="#0a1c2e" stroke="#0a1420" stroke-width="4"/>
  <rect x="140" y="90" width="840" height="52" fill="#0d2438" stroke="#0a1420" stroke-width="4"/>
  <circle cx="172" cy="116" r="7" fill="#facc15"/>
  <circle cx="196" cy="116" r="7" fill="#22d3ee"/>
  <circle cx="220" cy="116" r="7" fill="#6366f1"/>
  <rect x="256" y="103" width="360" height="26" fill="#0a1c2e" stroke="#0a1420" stroke-width="2"/>
  <text x="272" y="121" fill="#5c7386" font-size="14" font-family="JetBrains Mono, monospace">psm.gob.do</text>
  <!-- content -->
  <text x="180" y="230" fill="#f8fafc" font-size="72" font-weight="900" letter-spacing="-2">PSM</text>
  <rect x="180" y="250" width="300" height="14" fill="#22d3ee"/>
  <text x="182" y="300" fill="#facc15" font-size="18" font-family="JetBrains Mono, monospace">Permiso de Salida de Menor</text>
  <rect x="180" y="330" width="180" height="46" fill="#6366f1" stroke="#0a1420" stroke-width="3"/>
  <text x="214" y="360" fill="#ffffff" font-size="16" font-weight="800">START REQUEST</text>
  <rect x="620" y="180" width="320" height="300" fill="#0d2438" stroke="#0a1420" stroke-width="3"/>
  <rect x="648" y="212" width="180" height="12" fill="#5c7386"/>
  <rect x="648" y="244" width="264" height="10" fill="#123049"/>
  <rect x="648" y="268" width="264" height="10" fill="#123049"/>
  <rect x="648" y="300" width="130" height="10" fill="#123049"/>
  <rect x="648" y="360" width="120" height="40" fill="#facc15" stroke="#0a1420" stroke-width="3"/>
  <!-- label -->
  <rect x="140" y="486" width="196" height="54" fill="#22d3ee" stroke="#0a1420" stroke-width="4"/>
  <text x="160" y="520" fill="#0b1622" font-size="18" font-weight="800" font-family="JetBrains Mono, monospace">Desktop Preview</text>
</svg>
