<svg xmlns="http://www.w3.org/2000/svg" viewBox="0 0 600 840" width="600" height="840" font-family="Archivo, Arial, sans-serif">
  <rect width="600" height="840" fill="#0d2438"/>
  <g stroke="#123049" stroke-width="1">
    <path d="M44 0V840M132 0V840M220 0V840M308 0V840M396 0V840M484 0V840M572 0V840"/>
    <path d="M0 44H600M0 132H600M0 220H600M0 308H600M0 396H600M0 484H600M0 572H600M0 660H600M0 748H600"/>
  </g>
  <!-- phone frame -->
  <rect x="170" y="70" width="260" height="700" rx="30" fill="#0a1c2e" stroke="#0a1420" stroke-width="5"/>
  <rect x="250" y="92" width="100" height="16" rx="8" fill="#0a1420"/>
  <!-- app header -->
  <rect x="188" y="126" width="224" height="60" fill="#0d2438" stroke="#0a1420" stroke-width="3"/>
  <text x="208" y="164" fill="#f8fafc" font-size="30" font-weight="900" letter-spacing="-1">PSM</text>
  <rect x="332" y="146" width="60" height="22" fill="#22d3ee"/>
  <!-- hero -->
  <text x="204" y="248" fill="#facc15" font-size="13" font-family="JetBrains Mono, monospace">Permiso de</text>
  <text x="204" y="272" fill="#facc15" font-size="13" font-family="JetBrains Mono, monospace">Salida de Menor</text>
  <!-- status list -->
  <g>
    <rect x="188" y="300" width="224" height="70" fill="#0d2438" stroke="#0a1420" stroke-width="3"/>
    <rect x="204" y="316" width="90" height="12" fill="#5c7386"/>
    <rect x="204" y="338" width="150" height="10" fill="#123049"/>
    <rect x="360" y="316" width="36" height="36" fill="#34d399" stroke="#0a1420" stroke-width="2"/>
    <rect x="188" y="382" width="224" height="70" fill="#0d2438" stroke="#0a1420" stroke-width="3"/>
    <rect x="204" y="398" width="90" height="12" fill="#5c7386"/>
    <rect x="204" y="420" width="150" height="10" fill="#123049"/>
    <rect x="360" y="398" width="36" height="36" fill="#facc15" stroke="#0a1420" stroke-width="2"/>
    <rect x="188" y="464" width="224" height="70" fill="#0d2438" stroke="#0a1420" stroke-width="3"/>
    <rect x="204" y="480" width="90" height="12" fill="#5c7386"/>
    <rect x="204" y="502" width="150" height="10" fill="#123049"/>
    <rect x="360" y="480" width="36" height="36" fill="#22d3ee" stroke="#0a1420" stroke-width="2"/>
  </g>
  <!-- cta -->
  <rect x="188" y="560" width="224" height="52" fill="#6366f1" stroke="#0a1420" stroke-width="3"/>
  <text x="228" y="593" fill="#ffffff" font-size="16" font-weight="800">NEW REQUEST</text>
  <!-- label -->
  <rect x="150" y="716" width="176" height="50" fill="#22d3ee" stroke="#0a1420" stroke-width="4"/>
  <text x="170" y="748" fill="#0b1622" font-size="17" font-weight="800" font-family="JetBrains Mono, monospace">Mobile View</text>
</svg>
