<svg xmlns="http://www.w3.org/2000/svg" viewBox="0 0 1120 630" width="1120" height="630" font-family="Archivo, Arial, sans-serif">
  <rect width="1120" height="630" fill="#0d2438"/>
  <g stroke="#123049" stroke-width="1">
    <path d="M44 0V630M132 0V630M220 0V630M308 0V630M396 0V630M484 0V630M572 0V630M660 0V630M748 0V630M836 0V630M924 0V630M1012 0V630M1100 0V630"/>
    <path d="M0 44H1120M0 132H1120M0 220H1120M0 308H1120M0 396H1120M0 484H1120M0 572H1120"/>
  </g>
  <text x="80" y="90" fill="#22d3ee" font-size="16" font-family="JetBrains Mono, monospace">// request wizard</text>
  <!-- steps -->
  <g>
    <rect x="80" y="120" width="46" height="46" fill="#22d3ee" stroke="#0a1420" stroke-width="4"/>
    <text x="95" y="152" fill="#0b1622" font-size="22" font-weight="900">1</text>
    <rect x="126" y="141" width="120" height="4" fill="#0a1420"/>
    <rect x="246" y="120" width="46" height="46" fill="#facc15" stroke="#0a1420" stroke-width="4"/>
    <text x="261" y="152" fill="#0b1622" font-size="22" font-weight="900">2</text>
    <rect x="292" y="141" width="120" height="4" fill="#0a1420"/>
    <rect x="412" y="120" width="46" height="46" fill="#0a1c2e" stroke="#0a1420" stroke-width="4"/>
    <text x="427" y="152" fill="#9fb3c4" font-size="22" font-weight="900">3</text>
    <rect x="458" y="141" width="120" height="4" fill="#0a1420"/>
    <rect x="578" y="120" width="46" height="46" fill="#0a1c2e" stroke="#0a1420" stroke-width="4"/>
    <text x="593" y="152" fill="#9fb3c4" font-size="22" font-weight="900">4</text>
  </g>
  <!-- form card -->
  <rect x="80" y="200" width="960" height="360" fill="#0a1c2e" stroke="#0a1420" stroke-width="4"/>
  <text x="112" y="256" fill="#f1f5f9" font-size="26" font-weight="800">AUTHORIZER DATA</text>
  <g>
    <text x="112" y="308" fill="#9fb3c4" font-size="13" font-weight="700" font-family="JetBrains Mono, monospace">FULL NAME</text>
    <rect x="112" y="320" width="420" height="46" fill="#0d2438" stroke="#0a1420" stroke-width="3"/>
    <text x="588" y="308" fill="#9fb3c4" font-size="13" font-weight="700" font-family="JetBrains Mono, monospace">ID / CÉDULA</text>
    <rect x="588" y="320" width="420" height="46" fill="#0d2438" stroke="#0a1420" stroke-width="3"/>
    <text x="112" y="404" fill="#9fb3c4" font-size="13" font-weight="700" font-family="JetBrains Mono, monospace">EMAIL</text>
    <rect x="112" y="416" width="896" height="46" fill="#0d2438" stroke="#22d3ee" stroke-width="3"/>
  </g>
  <rect x="112" y="490" width="180" height="48" fill="#6366f1" stroke="#0a1420" stroke-width="3"/>
  <text x="150" y="521" fill="#ffffff" font-size="16" font-weight="800">CONTINUE</text>
  <!-- label -->
  <rect x="844" y="86" width="196" height="48" fill="#facc15" stroke="#0a1420" stroke-width="4"/>
  <text x="864" y="117" fill="#0b1622" font-size="17" font-weight="800" font-family="JetBrains Mono, monospace">Request Wizard</text>
</svg>
